<?xml version="1.0" encoding="UTF-8" standalone="no"?>
<!-- Created with Inkscape (http://www.inkscape.org/) -->

<svg
   version="1.1"
   id="svg2"
   width="8000"
   height="6660"
   viewBox="0 0 8000 6660"
   sodipodi:docname="dino.svg"
   inkscape:version="1.1.2 (0a00cf5339, 2022-02-04)"
   xmlns:inkscape="http://www.inkscape.org/namespaces/inkscape"
   xmlns:sodipodi="http://sodipodi.sourceforge.net/DTD/sodipodi-0.dtd"
   xmlns:xlink="http://www.w3.org/1999/xlink"
   xmlns="http://www.w3.org/2000/svg"
   xmlns:svg="http://www.w3.org/2000/svg">
  <defs
     id="defs6">
    <linearGradient
       inkscape:collect="always"
       id="linearGradient9599">
      <stop
         style="stop-color:#008080;stop-opacity:1;"
         offset="0"
         id="stop9595" />
      <stop
         style="stop-color:#008080;stop-opacity:0;"
         offset="1"
         id="stop9597" />
    </linearGradient>
    <linearGradient
       id="linearGradient9569"
       inkscape:swatch="solid">
      <stop
         style="stop-color:#008080;stop-opacity:1;"
         offset="0"
         id="stop9567" />
    </linearGradient>
    <radialGradient
       inkscape:collect="always"
       xlink:href="#linearGradient9599"
       id="radialGradient9603"
       cx="5488.4136"
       cy="2377.7817"
       fx="5488.4136"
       fy="2377.7817"
       r="88.833611"
       gradientTransform="matrix(-3.3055544,1.3980299,-0.40562852,-0.93809361,23848.46,-2888.0323)"
       gradientUnits="userSpaceOnUse" />
  </defs>
  <sodipodi:namedview
     id="namedview4"
     pagecolor="#505050"
     bordercolor="#ffffff"
     borderopacity="1"
     inkscape:pageshadow="0"
     inkscape:pageopacity="0"
     inkscape:pagecheckerboard="1"
     showgrid="false"
     inkscape:lockguides="false"
     inkscape:zoom="0.072628409"
     inkscape:cx="4984.2755"
     inkscape:cy="3696.9005"
     inkscape:window-width="1366"
     inkscape:window-height="704"
     inkscape:window-x="0"
     inkscape:window-y="0"
     inkscape:window-maximized="1"
     inkscape:current-layer="g8" />
  <g
     inkscape:groupmode="layer"
     inkscape:label="Image"
     id="g8"
     style="display:inline;opacity:1">
    <rect
       style="fill:#000000;fill-opacity:1;stroke:#010101;stroke-width:2.56721;stroke-linecap:round;stroke-linejoin:round;stroke-miterlimit:4;stroke-dasharray:none;stroke-dashoffset:0;stroke-opacity:1;paint-order:stroke fill markers"
       id="rect34545"
       width="14.325915"
       height="18.446234"
       x="-818.78979"
       y="-6668.4185"
       transform="matrix(-0.5870751,0.80953247,-0.83911826,-0.54394903,0,0)"
       inkscape:transform-center-x="1.4042706"
       inkscape:transform-center-y="0.80285845" />
    <rect
       style="fill:#000000;fill-opacity:1;stroke:#010101;stroke-width:1.61436;stroke-linecap:round;stroke-linejoin:round;stroke-miterlimit:4;stroke-dasharray:none;stroke-dashoffset:0;stroke-opacity:1;paint-order:stroke fill markers"
       id="rect35134"
       width="31.806658"
       height="18.045082"
       x="5835.4941"
       y="2935.4744" />
    <rect
       style="fill:#000000;fill-opacity:1;stroke:#010101;stroke-width:1.97881;stroke-linecap:round;stroke-linejoin:round;stroke-miterlimit:4;stroke-dasharray:none;stroke-dashoffset:0;stroke-opacity:1;paint-order:stroke fill markers"
       id="rect35238"
       width="13.57301"
       height="4.51121"
       x="6194.752"
       y="2938.5867" />
    <rect
       style="fill:#000000;fill-opacity:1;stroke:#010101;stroke-width:2.56702;stroke-linecap:round;stroke-linejoin:round;stroke-miterlimit:4;stroke-dasharray:none;stroke-dashoffset:0;stroke-opacity:1;paint-order:stroke fill markers"
       id="rect35425"
       width="14.411953"
       height="18.333464"
       x="4099.3101"
       y="5774.3179"
       transform="matrix(0.94047239,-0.3398701,0.3859605,0.92251531,0,0)"
       inkscape:transform-center-x="-1.6177932"
       inkscape:transform-center-y="0.11894013" />
    <rect
       style="fill:#000000;fill-opacity:1;stroke:#010101;stroke-width:1.61441;stroke-linecap:round;stroke-linejoin:round;stroke-miterlimit:4;stroke-dasharray:none;stroke-dashoffset:0;stroke-opacity:1;paint-order:stroke fill markers"
       id="rect35427"
       width="31.69606"
       height="18.109009"
       x="-7482.0552"
       y="109.87861"
       transform="matrix(-0.82919217,-0.55896363,0.56747299,-0.82339201,0,0)" />
    <rect
       style="fill:#000000;fill-opacity:1;stroke:#010101;stroke-width:1.97886;stroke-linecap:round;stroke-linejoin:round;stroke-miterlimit:4;stroke-dasharray:none;stroke-dashoffset:0;stroke-opacity:1;paint-order:stroke fill markers"
       id="rect35429"
       width="13.525815"
       height="4.5271912"
       x="-7124.0469"
       y="113.00183"
       transform="matrix(-0.82919217,-0.55896363,0.56747299,-0.82339201,0,0)" />
    <path
       id="path75132"
       style="fill:#5c5c5c;fill-opacity:1;stroke:#666666;stroke-width:13.9407;stroke-linecap:round;stroke-linejoin:round;stroke-miterlimit:4;stroke-dasharray:none;stroke-dashoffset:0;stroke-opacity:0.210119;paint-order:stroke fill markers"
       d="m 5808.6699,2063.0625 c -0.9546,0.1496 -1.4766,1.558 -1.5137,4.2187 -0.069,5.0195 -9.7358,7.1084 -24.4785,5.2891 -34.5863,-4.268 -74.6516,3.866 -68.3906,13.8848 3.1232,4.9978 1.6737,6.0815 -3.7226,2.7832 -12.8558,-7.8579 -54.6007,2.6829 -48.6075,12.2734 2.9597,4.7359 1.4416,5.7984 -3.75,2.625 -12.2592,-7.4931 -39.8469,2.4168 -33.7754,12.1328 2.9559,4.73 1.5255,5.8922 -3.4843,2.8301 -11.8411,-7.2376 -69.3504,10.8199 -63.627,19.9785 2.5634,4.1023 1.0695,5.2641 -3.3183,2.5821 -10.486,-6.4093 -32.9056,2.2633 -27.6387,10.6914 2.252,3.6037 -1.6946,4.355 -8.7695,1.6699 -8.6689,-3.2899 -11.1129,-2.0811 -7.4961,3.707 3.5124,5.6206 1.3269,7.0562 -6.3243,4.1524 -15.7717,-5.9856 -117.0772,27.3788 -111.2832,36.6503 2.5287,4.0463 0.7668,4.9903 -3.9433,2.1114 -9.472,-5.7897 -153.5121,38.6717 -157.4844,48.6113 -1.3829,3.4604 -5.3173,4.5778 -8.7422,2.4844 -3.4248,-2.0934 -14.1,-0.8448 -23.7226,2.7734 -9.6227,3.6182 -19.6709,6.1442 -22.3301,5.6133 -2.6595,-0.5309 -11.2174,4.7472 -19.0176,11.7285 -9.229,8.2603 -20.3861,11.0892 -31.9453,8.0996 -13.4562,-3.4802 -16.2885,-2.2361 -11.6836,5.1328 4.0321,6.4523 -3.5973,-2.2469 -2.5977,4.4239 103.0053,687.386 -112.4975,173.1116 -145.3242,28.7461 -1.3161,-5.7879 -5.549,4.0461 -5.623,-2.0762 -0.063,-5.3375 -3.2077,-7.8146 -6.9883,-5.5039 -3.7805,2.3109 -59.4395,4.3441 -123.6875,4.5176 -85.3259,0.2305 -116.9757,2.7118 -117.4082,9.2089 -0.434,6.5214 -1.601,6.4235 -4.3731,-0.3711 -2.5516,-6.2539 -22.0026,-9.2675 -59.8203,-9.2675 -35.451,0 -54.3371,2.7241 -51.4062,7.414 2.5481,4.0776 -0.825,7.4121 -7.4961,7.4121 -6.671,0 -10.0444,-3.3345 -7.4961,-7.4121 2.792,-4.4678 -7.2143,-7.414 -25.1816,-7.414 -36.503,0 -55.0509,6.3954 -48.5801,16.75 2.6748,4.2804 1.6506,5.8177 -2.2754,3.4179 -9.1251,-5.5776 -17.9147,0.6064 -38.4375,27.0391 -9.0783,11.6926 -14.3454,24.719 -11.7031,28.9473 2.7822,4.4523 1.1624,5.462 -3.8497,2.3984 -4.7599,-2.9093 -8.6548,-2.2662 -8.6542,1.4297 0,3.696 -22.0847,32.3178 -49.0762,63.6035 -26.9916,31.2858 -46.9802,60.235 -44.4199,64.332 2.5601,4.0968 1.8732,6.9707 -1.5254,6.3868 -15.177,-2.6075 -25.4175,1.3154 -21.1719,8.1093 2.5481,4.0776 0.8615,7.4121 -3.7481,7.4121 -4.6097,0 -5.9729,3.853 -3.0312,8.5606 3.1063,4.9708 2.0757,6.5595 -2.457,3.7891 -9.7154,-5.9384 -26.4116,12.7309 -18.8086,21.0312 3.0564,3.3368 1.8984,4.0079 -2.5723,1.4922 -11.7975,-6.6387 -73.7167,57.9079 -66.5508,69.375 3.5054,5.6093 2.7185,7.3773 -2.0019,4.4922 -4.3081,-2.6334 -11.8013,5.9616 -16.7774,19.2441 -4.9453,13.2003 -12.1965,29.9737 -16.1152,37.2754 -3.9188,7.3016 -5.0739,16.5596 -2.5664,20.5723 2.5078,4.0128 0.091,6.3783 -5.3692,5.2578 -5.6343,-1.1561 -9.4406,3.7876 -8.8027,11.4316 0.6185,7.4077 -0.6984,11.6658 -2.9258,9.4629 -6.7422,-6.6681 -33.1864,48.3979 -28.7422,59.8516 2.3051,5.9407 0.8492,8.6505 -3.289,6.1211 -4.0835,-2.4959 -10.4701,3.3821 -14.1914,13.0625 -8.4048,21.8627 -10.8088,200.7643 -2.6309,195.7656 3.2752,-2.0016 4.7087,10.2573 3.1875,27.2441 -1.9281,21.5301 -9.3893,37.7708 -24.6328,53.6153 -12.0267,12.5007 -19.2781,25.5464 -16.1133,28.9902 3.1648,3.4439 2.1428,4.2313 -2.2715,1.75 -9.7687,-5.491 -55.6914,20.9926 -55.6914,32.1172 0,4.3779 -2.8244,6.2343 -6.2754,4.125 -9.5717,-5.8505 -39.6376,17.7097 -34.0371,26.6719 2.8503,4.561 0.5406,6.3268 -5.4961,4.2011 -13.6362,-4.8017 -38.3152,7.9112 -32.7246,16.8575 2.3911,3.8262 -0.044,5.3225 -5.4121,3.3242 -12.5309,-4.665 -92.7949,43.6438 -90.4336,54.4297 1.0291,4.7002 -3.3961,6.1847 -10.4551,3.5058 -7.4437,-2.825 -16.2185,0.7394 -22.3984,9.0977 -5.5882,7.5581 -10.1602,11.6199 -10.1602,9.0273 0,-6.1865 492.085,1289.6263 486.1309,1298.4883 -2.5224,3.7545 -584.506,-1251.1268 -588.168,-1251.4551 -9.9136,-0.8882 -57.9053,15.1326 -67.3183,22.4727 -4.5022,3.5108 -10.4062,4.189 -13.1192,1.5059 -2.7127,-2.683 -4.9316,-1.6908 -4.9316,2.205 -5.2694,139.6429 -11.1387,264.4053 -17.2656,381.92 74.7131,100.9513 95.9276,203.1989 70.8222,315.6191 l 232.5684,24.8613 c 237.1365,25.3498 -5.3595,122.9017 -343.2969,223.666 -0.9841,10.04 -1.9437,21.1772 -2.9355,30.8262 156.9369,234.7323 357.1572,534.1526 358.4785,536.209 4.2177,6.5645 14.8579,3.0023 39.2402,-13.1387 18.3995,-12.1806 32.6512,-25.2888 31.6699,-29.1289 -0.9814,-3.84 2.5743,-5.328 7.9004,-3.3066 5.3263,2.0214 29.6914,-5.0743 54.1446,-15.7696 l 44.459,-19.4472 24.4921,28.4785 c 13.4705,15.663 28.1082,27.5619 32.5293,26.4414 4.4211,-1.1204 6.059,1.1308 3.6387,5.0039 -5.5516,8.8839 6.9531,34.9482 16.2578,38.7637 0.9957,-2.0745 1.9893,-4.2389 2.9844,-6.2676 1.4979,-3.0536 3.0473,-6.0774 4.5625,-9.1211 -2.208,-4.0271 -2.7324,-5.4639 -6.4883,-10.5977 -19.6851,-26.9066 -7.6102,-49.2209 11.0508,-49.4824 6.7994,-0.095 14.3221,4.1467 21.6523,10.752 5.6865,-9.9147 11.5306,-19.7394 17.7989,-29.3223 10.6835,-7.578 15.5729,-12.4903 20.1211,-12.123 4.7347,0.3823 9.4166,6.9442 19.5586,21.7187 1.7206,-43.4151 4.2116,-70.9094 8.7617,-68.1504 2.353,1.4267 10.2562,-20.2002 17.5625,-48.0605 14.1442,-53.9336 22.5898,-148.7481 13.25,-148.7481 -6.7097,0 -5.8876,-24.0891 1.9922,-58.3847 4.1235,-17.9462 2.8737,-26.9415 -4.4219,-31.8164 -8.2603,-5.5194 -8.0591,-6.4478 1.0723,-4.9336 15.5494,2.5785 46.366,-15.2677 41.0507,-23.7735 -2.4556,-3.9295 1.2496,-4.8338 8.5157,-2.0761 9.3185,3.5365 11.2037,2.226 6.8418,-4.754 -4.0599,-6.497 -2.6289,-8.4533 4.3925,-6.0097 15.3816,5.3528 98.287,-37.5228 92.002,-47.5801 -3.0633,-4.9018 -1.8229,-6.2484 3.0254,-3.2852 9.7394,5.9535 69.0605,-11.0568 69.0605,-19.8027 0,-3.3254 3.439,-3.9443 7.6426,-1.375 10.0109,6.1191 59.8242,-10.2316 59.8242,-19.6367 0,-4.002 2.9323,-5.4825 6.5176,-3.291 3.5853,2.1913 15.8988,-3.9877 27.3633,-13.7305 11.5842,-9.8444 25.887,-15.8015 32.1933,-13.4082 8.0135,3.0412 9.5442,1.4224 5.211,-5.5117 -4.0666,-6.5078 -3.237,-8.0488 2.457,-4.5684 15.6092,9.5408 132.7903,-79.3143 123.7266,-93.8183 -2.7484,-4.3982 -1.3237,-5.6375 3.2597,-2.836 9.8371,6.0127 32.9342,-24.2969 26.4375,-34.6933 -2.527,-4.0437 -0.8157,-5.041 3.8047,-2.2168 9.9838,6.1024 55.2992,-31.6556 49.3731,-41.1387 -2.2532,-3.6056 0.372,-5.638 5.832,-4.5176 5.4603,1.1205 9.0001,-2.381 7.8672,-7.7812 -1.1329,-5.3997 1.466,-7.6634 5.7754,-5.0293 4.3095,2.6342 18.1453,-3.7912 30.7461,-14.2774 12.6009,-10.4862 26.0253,-19.0664 29.832,-19.0664 3.8065,0 14.0663,-7.0647 22.7988,-15.7011 9.4736,-9.3693 17.7887,-12.6698 20.6153,-8.1817 2.6055,4.1368 19.9173,11.5265 38.4707,16.4219 18.5532,4.8954 53.0628,15.486 76.6894,23.5351 23.6268,8.0492 46.9175,12.2145 51.7578,9.2559 5.9078,-3.611 6.7852,-2.1501 2.6661,4.4414 -4.4926,7.1893 -2.6916,8.5099 6.7265,4.9356 7.0749,-2.685 11.0245,-1.9398 8.7774,1.6562 -5.5556,8.8902 30.7091,17.2006 50.7968,11.6406 12.8451,-3.5553 13.8843,-2.8674 4.9844,3.295 -9.7206,6.7308 -9.4658,7.9268 1.875,8.8261 12.7472,1.0109 22.1757,2.8412 33.7324,6.5508 3.0922,0.9927 8.152,1.4104 11.2442,0.9277 3.0922,-0.4829 5.623,2.2324 5.623,6.0352 0,7.0391 29.1249,19.4699 39.3555,16.7969 3.0922,-0.8078 5.6211,2.0763 5.6211,6.4101 0,4.3338 7.5906,6.8362 16.8672,5.5606 9.7124,-1.3356 16.1736,1.3109 15.2324,6.2383 -0.8991,4.7064 11.8181,13.8797 28.2617,20.3867 35.3977,14.0075 47.4459,14.9916 40.1231,3.2734 -3.3405,-5.3458 -2.0536,-6.5457 3.4277,-3.1953 4.8273,2.9506 6.5078,8.9956 3.7344,13.4336 -3.293,5.2696 0.5697,6.6187 11.1328,3.8867 8.8963,-2.3008 14.4881,-1.4837 12.4258,1.8164 -4.9377,7.9016 40.6622,23.4825 50.7246,17.3321 4.8552,-2.9678 5.5036,-1.0971 1.7168,4.9628 -4.5284,7.2466 -1.9547,8.6595 10.0957,5.543 10.468,-2.7072 14.4156,-1.3669 11.1875,3.7988 -3.1551,5.049 -0.4058,6.2426 7.4843,3.2481 6.8608,-2.6038 12.4747,-1.958 12.4747,1.4336 0,9.4974 133.3937,54.4928 143.4062,48.373 5.0813,-3.1058 6.8505,-2.2228 4.1641,2.0762 -5.4428,8.7094 30.1356,26.6929 40.3984,20.4199 3.8139,-2.3311 6.9356,-0.9648 6.9356,3.0371 0,9.4051 49.8114,25.7559 59.8222,19.6368 4.2037,-2.5693 7.6446,-0.7819 7.6445,3.9726 0,4.7545 5.0598,6.7242 11.2442,4.377 6.1844,-2.3471 11.2441,-1.6532 11.2441,1.541 0,9.2749 52.6737,31.5485 61.6426,26.0664 4.6662,-2.8522 6.0001,-1.5499 3.125,3.0508 -5.7471,9.1968 21.2139,19.81 32.6172,12.8398 4.1597,-2.5426 7.5625,-1.0897 7.5625,3.2285 0,4.9683 25.4619,7.8123 69.3398,7.7383 47.5384,-0.078 65.8066,-2.3737 58.0977,-7.3008 -11.7055,-7.4815 -7.785,-9.0605 22.4883,-9.0605 24.386,0 26.8444,1.4851 14.9922,9.0605 -8.566,5.4748 -5.5899,7.2138 12.4941,7.3008 13.0559,0.062 25.0166,-3.6775 26.5781,-8.3105 2.0193,-5.9917 7.6106,-5.4769 19.3653,1.7832 13.724,8.4763 19.2009,8.5551 32.3027,0.4629 11.0525,-6.8266 14.11,-7.0764 10.209,-0.834 -4.162,6.6603 3.6854,7.918 31.0742,4.9804 41.5099,-4.452 79.36,-19.2453 73.4473,-28.707 -2.1755,-3.4814 -0.3838,-6.7478 3.9824,-7.2578 4.3664,-0.5097 11.3125,-1.7599 15.4355,-2.7793 4.1229,-1.0194 10.027,-2.2775 13.1192,-2.7949 12.4565,-2.0851 55.7208,-74.2919 50.1875,-83.7617 -3.157,-5.4025 -2.9438,-7.3128 0.4746,-4.2461 8.1044,7.271 42.6446,-52.8177 36.2461,-63.0567 -2.8676,-4.589 -1.3117,-5.6401 3.7617,-2.539 5.908,3.6112 8.6543,-2.8898 8.6543,-20.4883 0,-31.0259 -6.7081,-50.5911 -15.5039,-45.2149 -7.4504,4.554 -37.7066,-23.0581 -31.7363,-28.9629 7.2208,-7.1413 -136.2059,-2.349 -145.7871,4.8711 -9.0639,6.8304 -10.1672,5.9919 -12.1817,-9.2636 -1.3347,-10.1073 -118.2286,-96.9013 -124.9629,-92.7852 -3.0739,1.8789 -7.6573,-1.9156 -10.1855,-8.4316 -2.7042,-6.9699 -9.3611,-10.0404 -16.168,-7.4571 -6.5698,2.4932 -9.6067,1.2505 -7.0273,-2.8769 2.4984,-3.9981 -11.2092,-16.4706 -30.461,-27.7168 -19.2519,-11.2461 -49.7019,-29.877 -67.666,-41.4004 -17.9641,-11.5234 -36.127,-18.8316 -40.3633,-16.2422 -4.2364,2.5895 -7.7031,-0.3739 -7.7031,-6.584 0,-6.2099 -12.5893,-19.7508 -27.9766,-30.0918 -29.9215,-20.1085 -43.7109,-24.1406 -35.0253,-10.2422 3.3405,5.3456 2.0536,6.5438 -3.4278,3.1934 -4.8275,-2.9505 -7.2591,-7.7945 -5.4023,-10.7656 4.8772,-7.8047 -2.9776,-16.9031 -37.5625,-43.5098 -17.6301,-13.5632 -38.2133,-39.2904 -48.3828,-60.4746 -9.7344,-20.2779 -20.9557,-34.8772 -24.9375,-32.4434 -4.1336,2.5266 -5.2279,-0.7637 -2.5489,-7.6679 8.43,-21.727 -27.5666,-127.4515 -40.6679,-119.4434 -3.4544,2.1112 -4.5152,-0.7151 -2.3555,-6.2812 3.5843,-9.2381 -21.5633,-38.8399 -32.9961,-38.8399 -2.6602,0 -3.8726,-2.8526 -2.6973,-6.3398 3.5237,-10.4546 -14.4316,-27.2253 -23.6015,-22.0449 -4.6865,2.6478 -5.984,2.0469 -2.8828,-1.334 7.5611,-8.2434 -16.8177,-34.2135 -26.5391,-28.2715 -4.2089,2.5728 -5.4307,1.1214 -2.7148,-3.2246 6.6632,-10.6627 -60.795,-68.5274 -79.8887,-68.5274 -8.3525,0 -13.0521,-2.1113 -10.4434,-4.6914 2.6089,-2.5802 -3.2637,-10.9194 -13.0508,-18.5332 -19.4121,-15.1017 -30.2452,-18.1393 -22.9277,-6.4297 2.5482,4.0777 0.9143,7.4141 -3.6328,7.4141 -4.547,0 -7.2779,-5.8389 -6.0664,-12.9746 1.4417,-8.4913 -2.301,-12.622 -10.834,-11.957 -7.1708,0.559 -11.035,-2.1904 -8.5859,-6.1094 6.1575,-9.8537 -27.3507,-43.7282 -37.5625,-37.9727 -4.5544,2.5668 -5.7659,1.923 -2.6934,-1.4297 3.0725,-3.3527 -2.2282,-16.3983 -11.7773,-28.9902 -24.3171,-32.0663 -31.4842,-44.7133 -22.086,-38.9687 4.2753,2.6132 15.7603,-1.2393 25.5215,-8.5625 9.7613,-7.3231 39.6735,-22.4589 66.4727,-33.6348 63.0241,-26.2829 121.1125,-64.9432 116.3222,-77.416 -2.0552,-5.3514 -0.2573,-7.5443 4.0332,-4.9219 10.7481,6.5696 31.0916,-11.5885 26.4336,-23.5938 -2.1008,-5.4141 -0.103,-9.0486 4.4395,-8.0781 9.1143,1.9471 61.4535,-60.9688 55.5644,-66.7929 -2.0237,-2.0016 1.2513,-8.515 7.2774,-14.4747 6.027,-5.9597 8.7168,-14.4199 5.9804,-18.7988 -2.7634,-4.4221 -1.4921,-5.8316 2.8594,-3.1719 9.5751,5.8526 34.4193,-29.6395 27.9707,-39.9589 -2.5393,-4.0634 -0.1497,-6.472 5.3106,-5.3516 5.496,1.1278 8.8111,-2.9272 7.4277,-9.084 -1.3744,-6.1163 -0.1725,-8.8208 2.6699,-6.0098 2.8423,2.8111 13.3956,-3.0278 23.4532,-12.9746 10.0575,-9.9468 26.2913,-18.084 36.0742,-18.084 9.7827,0 23.675,-2.2348 30.873,-4.9667 9.1973,-3.4904 11.3992,-2.2656 7.4082,4.121 -4.2698,6.8328 6.1219,8.9271 41.875,8.4415 26.1541,-0.355 72.8532,2.648 103.7754,6.6738 111.9959,14.5812 193.6772,4.0734 205.5156,-26.4375 2.3505,-6.0578 7.6701,-8.9365 11.8223,-6.3985 4.1519,2.5378 7.5508,0.8831 7.5508,-3.6757 0,-4.5589 3.5199,-6.1368 7.8242,-3.5059 11.0106,6.7302 46.2382,-17.6074 39.9805,-27.6211 -3.1182,-4.9898 -1.73,-6.1447 3.5234,-2.9336 11.6079,7.0951 23.4209,-25.0542 25.6289,-69.7519 0.9644,-19.5227 3.6703,-34.3556 6.0137,-32.961 2.3433,1.3944 8.1898,-8.2108 12.9922,-21.3457 8.5553,-23.399 41.9266,-49.4668 63.3261,-49.4668 5.9399,0 16.9066,-6.6729 24.3692,-14.8281 7.4624,-8.1551 10.5144,-14.8784 6.7832,-14.9414 -3.7312,-0.062 -3.2448,-2.5647 1.0801,-5.5606 4.325,-2.9957 15.3407,-25.0588 24.4785,-49.0312 13.0337,-34.1923 14.7007,-45.8684 7.7344,-54.1699 -7.0139,-8.3584 -6.6457,-10.105 1.7578,-8.3106 8.5106,1.8172 10.4492,-8.851 9.6855,-53.3301 -0.5943,-34.6298 1.3279,-50.0119 5.0957,-40.7773 4.1393,10.1447 6.2156,1.0561 6.5762,-28.7773 0.508,-42.039 -0.6807,-44.7968 -33.0742,-76.834 -21.9486,-21.7071 -37.6788,-31.6828 -45.3653,-28.7656 -6.7764,2.5717 -9.8249,1.3571 -7.1875,-2.8633 2.5189,-4.0309 -0.8796,-7.3282 -7.5507,-7.3282 -6.6711,0 -10.2764,-2.9659 -8.0118,-6.5898 4.5854,-7.3377 -48.3927,-50.1228 -58.1367,-46.9512 -3.3987,1.1062 -4.3238,-0.956 -2.0566,-4.584 2.2671,-3.6279 -17.3288,-26.2298 -43.5449,-50.2265 -67.0505,-61.3745 -71.7968,-64.8618 -72.4161,-53.1914 -0.2789,5.2578 -4.0842,2.2374 -8.457,-6.7129 -10.6424,-21.7833 -90.806,-52.9274 -158.6894,-61.6524 -68.1096,-8.7542 -186.8115,-9.3417 -181.5352,-0.8984 5.6241,8.9997 -28.1278,6.3594 -34.8789,-2.7285 -1.7667,-2.3783 -3.1547,-3.4875 -4.1094,-3.3379 z M 3565.5176,4356.4414 c -4.4895,-6.7149 -5.7004,-8.5296 -10.2539,-15.3398 3.182,-4.7972 6.4503,-9.6342 9.5254,-14.3868 1.2387,-0.3686 2.428,-0.731 3.664,-1.0996 0.1654,-1.6876 0.329,-3.4829 0.4942,-5.1816 56.0672,-87.6402 93.3803,-167.8745 110.2343,-243.3457 l -89.4375,-9.5606 c 6.5044,-92.4545 12.7455,-193.4771 18.6153,-306.0585 -51.991,-70.2497 -130.06,-140.1332 -236.6817,-212.461 5.4598,188.4166 12.2488,353.9256 20.1485,497.3613 l -36.2539,-3.875 c -263.2969,-393.1902 -516.5444,-770.2699 -525.0879,-778.9336 3.1672,-0.2161 7.2386,-0.3532 10.6386,-0.5566 -5.6113,-2.5863 -10.5483,-5.0399 -16.2207,-7.6387 -0.2073,3.0134 -0.4826,5.5207 -0.6914,8.5235 1.6845,-0.1248 4.1824,-0.1895 5.9493,-0.3106 4.8474,10.6089 250.1894,390.6615 496.6464,775.8418 l -581.2812,-62.1387 c -15.673,93.3221 -33.1585,178.6489 -52.4629,256.6368 6.3912,5.5653 12.8816,10.9805 19.127,16.7695 27.8012,22.7998 60.2046,40.334 78.8945,72.5215 26.3761,34.339 55.6724,67.1483 75.4238,105.9297 25.9276,3.2969 51.513,14.6612 73.6973,28.1347 7.6988,4.6758 -4.5038,17.4427 -6.7559,26.1641 -5.1801,11.7511 -10.5516,23.4128 -15.8613,35.1035 2.157,3.6121 4.0749,7.3493 6.1953,10.9805 30.598,5.9503 61.0463,13.2859 92.3945,23.4668 10.9963,3.5713 20.9953,9.6927 31.4922,14.539 13.627,10.2992 27.7954,19.9423 41.0137,30.7364 158.4929,-87.0195 280.4742,-160.5538 328.0293,-204.8789 4.0739,42.2607 8.1832,83.6496 12.5195,117.7246 39.771,-49.2119 75.8765,-96.4262 107.0547,-141.3477 8.2658,13.0412 16.0109,25.2916 24.1172,38.1016 1.7376,-15.527 3.3971,-34.7264 5.1133,-51.4219 z m -5.1133,51.4219 c -42.8742,383.1073 -91.9387,411.5383 -131.1719,103.2461 -59.7165,73.892 -131.51,155.2845 -208.9121,240.8261 3.1559,5.0687 6.2824,10.1586 9.5567,15.1426 40.7674,62.055 25.2167,37.8648 53.1484,81.8321 8.7609,17.691 18.3982,34.9738 26.2832,53.0722 2.2589,5.185 3.925,10.5814 6.0742,15.8067 58.5909,13.5759 132.5438,42.4379 227.5176,92.0254 26.2109,-13.4051 114.7292,-20.4887 107.291,-8.586 -2.5544,4.0877 2.411,5.3103 11.752,2.8945 8.8963,-2.3008 14.285,-1.1583 11.9746,2.5391 -2.3106,3.6974 5.274,7.2303 16.8554,7.8516 30.5719,1.6395 35.2246,2.4581 43.6036,7.6621 4.1543,2.5803 19.5515,6.9161 34.2148,9.6367 19.7088,3.6567 29.2184,1.8997 36.4687,-6.7402 5.394,-6.428 6.8628,-11.7428 3.2657,-11.8008 -3.597,-0.062 -3.0874,-2.5649 1.1308,-5.5606 4.2182,-2.9959 13.6471,-14.7361 20.9551,-26.0898 7.308,-11.3537 30.001,-32.5177 50.4277,-47.0313 7.4086,-5.2639 -142.9649,-246.2788 -320.4355,-526.7265 z m -814.8789,-430.5821 c 33.2843,-198.1858 59.1162,-431.8575 78.6855,-713.3925 -20.911,1.5488 -36.1871,3.3096 -37.5996,5.1953 -2.3756,3.1715 -32.9921,6.4714 -68.0371,7.334 -83.3117,2.0503 -118.8725,8.1928 -104.4297,18.039 7.8266,5.3355 5.9962,5.9915 -6.7695,2.4239 -28.1622,124.7122 -51.7324,242.6576 -72.7695,356.4257 -13.1938,-99.9125 -27.5759,-202.9391 -44.668,-312.7578 -6.1844,-2.3469 -17.0529,-2.0636 -24.1523,0.6309 -11.137,4.2266 -11.3949,5.9577 -1.875,12.6133 8.8965,6.2197 8.3179,6.8383 -2.9864,3.1972 -19.1474,-6.1672 -214.3994,90.268 -215.207,106.291 -0.386,7.6571 -1.9073,8.5182 -4.373,2.4747 -2.0797,-5.0971 -7.073,-9.2676 -11.0958,-9.2676 -4.0228,0 -4.9067,3.851 -1.9648,8.5586 3.1939,5.1109 2.0692,6.5539 -2.793,3.582 -5.1789,162.7714 -6.9238,311.5274 -7.0039,452.3125 l 266.543,28.4922 c -7.4158,50.4617 -14.4178,100.1542 -20.4336,147.8945 4.3276,0.5878 8.6263,1.371 12.957,1.9375 15.1595,5.6568 30.8457,10.0653 45.4785,16.9707 15.2243,7.1844 29.4751,16.2991 43.7911,25.1563 7.7278,4.7811 15.2308,9.8119 22.8105,14.7558 -5.2933,-63.019 -11.544,-128.8353 -18.748,-197.5371 z m -527.0391,-56.3398 -42.2558,-4.5176 c 16.1294,77.1892 28.8728,145.04 42.4609,215.3418 0.5672,-0.73 1.1763,-1.43 1.7461,-2.1582 -1.0993,-67.1967 -1.9928,-135.476 -1.9512,-208.666 z m -42.2558,-4.5176 c -25.7754,-123.3505 -54.412,-254.2686 -87.2285,-395.3261 -0.063,-3.2016 -7.7057,-1.6527 -16.9825,3.4433 -9.2766,5.0959 -18.5518,9.4789 -20.6133,9.7383 -2.0614,0.2593 -23.5526,9.5519 -47.7578,20.6504 -24.2052,11.0986 -46.9768,20.1797 -50.6015,20.1797 -3.6246,0 -6.5899,3.5333 -6.5899,7.8515 0,4.3182 -3.2743,5.8491 -7.2773,3.4024 -6.6986,-4.0945 -119.1081,37.7143 -127.6563,47.4805 -2.0615,2.3548 -7.1211,4.2812 -11.2441,4.2812 -19.0402,0 -115.9408,35.1803 -112.4199,40.8145 2.183,3.4934 0.019,8.7663 -4.8086,11.7167 -5.4814,3.3504 -6.7682,2.1505 -3.4278,-3.1953 2.9419,-4.7075 1.7764,-8.5586 -2.5898,-8.5586 -4.3663,0 -7.9434,2.5024 -7.9434,5.5606 0,3.0581 -9.1761,6.087 -20.3847,6.7305 -11.2087,0.6437 -21.545,4.6254 -22.9688,8.8496 -1.4236,4.2235 -6.7638,6.0957 -11.8691,4.1582 -13.2535,-5.0298 -66.1975,18.2223 -60.877,26.7363 2.4553,3.929 -0.6839,5.1598 -7.0234,2.7539 -13.0234,-4.9427 -109.2559,27.1188 -109.2559,36.4004 0,3.3353 -2.9292,4.2754 -6.5078,2.0879 -5.9747,-3.6518 -65.4327,17.1668 -115.3066,40.373 l -20.6153,9.5918 z m 664.8925,-653.4199 c 224.0163,103.2503 398.7909,196.6207 530.5547,286.0039 -1.9693,-67.9629 -4.0381,-134.3399 -5.6386,-208.0937 -6.0831,2.3087 -9.1051,1.0672 -6.7149,-2.7579 6.7434,-10.7908 -46.9792,-18.217 -59.2031,-8.1835 -7.9948,6.5616 -11.8226,6.4897 -16.0684,-0.3047 -3.407,-5.452 -2.411,-6.9871 2.5625,-3.9473 4.475,2.7355 10.0473,1.9171 12.3828,-1.8203 7.5597,-12.0974 -212.9951,-55.5875 -245.7851,-48.4649 -13.6204,2.9586 -19.9525,1.9574 -17.0449,-2.6953 2.6374,-4.2206 -7.4322,-9.0715 -23.4258,-11.2851 -26.3423,-3.6456 -113.3927,-1.9342 -171.6192,1.5488 z M 4637,2323.0918 c 2.6042,0.1061 4.8424,0.7877 6.0879,2.0195 2.4908,2.4635 -1.9375,4.2166 -9.8399,3.8946 -8.7326,-0.3558 -10.5073,-2.1138 -4.5273,-4.4805 2.7058,-1.0708 5.6751,-1.5397 8.2793,-1.4336 z m 1794.3047,16.8066 c 1.965,-1.9434 5.5703,1.6141 8.0117,7.9063 5.0689,13.064 0.7472,15.3635 -6.6445,3.5351 -2.7175,-4.3489 -3.3322,-9.498 -1.3672,-11.4414 z m -1545.8633,63.8301 c 4.3662,0 5.4988,3.9032 2.5176,8.6738 -3.5057,5.6099 -1.5118,7.1918 5.6426,4.4766 8.5754,-3.2543 10.3424,0.6493 7.8613,17.3691 -2.7232,18.3499 -1.1158,20.8966 10.7812,17.0665 10.5708,-3.4033 11.464,-2.7234 3.6543,2.7832 -5.6821,4.0063 -8.0126,10.9918 -5.1796,15.5253 2.8329,4.5335 1.5771,8.2442 -2.7891,8.2442 -5.1088,0 -7.9375,29.2252 -7.9375,81.9883 0,63.3828 2.1252,80.826 9.3691,76.8633 5.1536,-2.8196 -1.801,5.3248 -15.4551,18.0976 -15.8912,14.8654 -32.5271,23.2227 -46.2265,23.2227 -11.7708,0 -23.1021,4.1705 -25.1817,9.2675 -2.9025,7.1144 -3.9186,7.1571 -4.373,0.1836 -0.3925,-6.0237 -6.2739,-7.2727 -17.459,-3.707 -21.2852,6.7854 -201.0533,0.024 -213.6445,-8.0352 -5.1537,-3.2989 -9.3692,-13.5857 -9.3692,-22.8593 0,-9.2738 -2.3288,-19.163 -5.1738,-21.9766 -7.453,-7.3707 -7.689,-56.666 -0.2715,-56.666 3.4296,0 5.6877,-22.5193 5.0176,-50.043 -2.2377,-91.8781 6.3665,-98.2324 132.9922,-98.2324 41.45,0 68.9451,-2.8411 66.4316,-6.8633 -2.5639,-4.103 16.8514,-5.2034 48.2832,-2.7363 36.5679,2.8701 52.5704,1.5744 52.5704,-4.2578 0,-4.6115 3.5731,-8.3848 7.9394,-8.3848 z M 2453.3906,4195.8359 c -20.779,187.5688 -31.0033,352.5245 -33.1836,492.8106 6.6719,-8.7413 13.1647,-17.629 20.4297,-25.8848 9.1594,-10.4084 21.7915,-17.1505 32.5274,-25.9238 11.7806,-9.6269 23.8063,-18.9889 35.0175,-29.2734 8.4402,-7.7426 14.7311,-17.8067 23.8536,-24.7325 23.4109,-17.7733 39.5175,-26.337 56.748,-33.4961 7.4658,-17.0918 15.0631,-33.8426 22.1914,-51.8144 -2.5023,-66.2839 -6.2243,-136.7854 -11.3769,-212.1231 -10.5616,-8.9928 -21.2552,-17.7974 -32.5118,-25.7382 -17.4912,-12.339 -35.8885,-23.3527 -54.1718,-34.4844 -12.9151,-7.8634 -25.6922,-16.0967 -39.3965,-22.4863 -6.4281,-2.9972 -13.2778,-4.9243 -20.127,-6.8536 z m 157.584,301.6856 c 0.5356,14.1874 1.0942,28.4445 1.6816,42.8125 8.99,-3.2568 15.4113,-5.7745 27.6973,-10.4453 14.3296,-3 28.5566,-6.6573 42.8184,-10.0879 3.8061,-6.8524 7.9018,-13.5943 12.3711,-20.1895 9.0948,4.5985 18.9015,8.1855 28.5625,11.9805 4.3575,-0.6779 8.6912,-1.5076 13.082,-1.9746 20.6342,-2.1945 41.4841,1.3332 62.168,3.1348 -5.1011,-8.8655 -10.6534,-17.4752 -15.3496,-26.5645 -16.9501,-38.4457 -46.3491,-69.242 -71.8047,-102.123 -7.8556,-8.2485 -12.9146,-20.3872 -21.9219,-27.584 -6.0417,-4.8273 -13.6146,-7.4347 -19.8594,-11.9961 -2.0939,-1.5295 -4.0824,-3.1986 -6.1289,-4.791 -16.6216,56.1311 -34.1339,109.4652 -53.3164,157.8281 z M 2244.1465,4262.334 c -6.5415,8.1671 -13.4247,16.0907 -20.3828,23.959 5.9578,195.8203 16.9549,353.0579 29.4277,489.1289 2.5605,-0.6236 5.0497,-1.4966 7.7676,-1.6367 11.0642,-0.5705 23.7818,3.2247 41.0019,14.3164 14.3815,9.2633 19.8787,27.55 28.7422,42.4179 -16.8025,-148.1001 -43.5488,-333.4731 -86.5566,-568.1855 z m 516.207,346.7969 c -3.7982,9.0776 -7.1367,18.3446 -11.25,27.2793 -2.0037,4.3522 -4.2654,8.5555 -6.2988,12.8906 -1.1636,5.9004 -2.3182,11.8025 -3.2676,17.7441 9.0006,-19.1099 17.8893,-38.2717 26.8242,-57.4121 -2.0052,-0.1949 -4.003,-0.341 -6.0078,-0.5019 z m -122.1445,27.4668 c -8.4514,3.2227 -15.8291,6.2901 -23.586,10.4394 0.1174,11.5619 0.3373,23.5246 0.3692,34.7422 7.8073,-15.0217 15.763,-29.959 23.2168,-45.1816 z m 337.3828,8.0117 c 1.6148,4.1656 3.2042,8.3407 4.8359,12.5 4.3393,-2.3113 7.9286,-4.3493 12.2285,-6.6465 -1.3301,-0.8994 -2.7025,-1.7461 -4.0117,-2.6719 -4.3751,-0.8704 -8.6949,-2.1795 -13.0527,-3.1816 z m -94.4473,31.7324 c -0.1287,0.4705 -0.3524,1.433 -0.4824,1.9082 0.4445,0.062 0.8781,0.1784 1.3223,0.2422 -0.281,-0.7164 -0.5586,-1.4341 -0.8399,-2.1504 z m -624.1972,142.1348 c 1.3265,13.3803 2.3922,30.2985 3.7558,43.0488 11.4268,2.4146 21.3216,4.7301 25.1328,6.1211 0.4718,-0.3414 1.0329,-0.7266 1.5079,-1.0684 -1.9948,-8.3013 -4.1047,-16.5957 -5.4942,-24.9336 -6.9771,-7.5796 -11.1822,-19.4116 -20.9316,-22.7402 -1.4275,-0.4873 -2.7211,-0.5259 -3.9707,-0.4277 z m 914.9941,42.957 c -1.0741,5.0645 -2.2979,10.4309 -3.75,16.2695 0.8018,1.4311 1.7966,2.7192 2.6426,4.1114 9.3737,15.4264 15.1828,26.2281 21.3691,36.8535 3.8962,-1.6617 7.9189,-3.1961 12.2188,-4.4512 -3.6035,-6.8603 -6.9987,-13.8191 -10.4981,-20.7285 -7.836,-10.3002 -15.0177,-21.0963 -21.9824,-32.0547 z m -235.9629,1296.9062 c -2.0585,2.3023 -3.3813,3.7467 -5.332,5.9414 0.8073,-0.3459 1.9101,-0.387 2.6406,-0.7695 0.8952,-2.0239 1.7679,-3.1803 2.6914,-5.1719 z m -379.0586,110.8047 c -0.7365,1.5481 -1.3055,2.7855 -2.0058,4.2617 0.7768,-1.2406 2.2919,-2.9587 3.0117,-4.1679 -0.3353,-0.014 -0.6706,-0.077 -1.0059,-0.094 z" />
  </g>
  <g
     inkscape:groupmode="layer"
     id="layer1"
     inkscape:label="Robot"
     style="display:inline">
    <ellipse
       style="fill:#ff0000;fill-opacity:0.817959;stroke:#010101;stroke-width:1.04509;stroke-miterlimit:4;stroke-dasharray:4.18037, 4.18037;stroke-dashoffset:0;stroke-opacity:1;paint-order:stroke fill markers"
       id="path7277"
       cx="4738.7256"
       cy="2553.3022"
       rx="87.025024"
       ry="84.003441" />
    <rect
       style="fill:url(#radialGradient9603);fill-opacity:1;stroke:#010101;stroke-width:1.61436;stroke-miterlimit:4;stroke-dasharray:6.45745, 6.45745;stroke-dashoffset:0;stroke-opacity:1;paint-order:stroke fill markers"
       id="rect7425"
       width="268.17139"
       height="204.52693"
       x="4607.6304"
       y="2452.0881"
       inkscape:transform-center-x="-1.7023198"
       inkscape:transform-center-y="19.899993" />
    <path
       style="fill:#f9f9f9;stroke:#000000;stroke-width:1.51016px;stroke-linecap:butt;stroke-linejoin:miter;stroke-opacity:1"
       d="m 5688.0604,3099.8347 50.178,66.6838 10.9476,-74.3858 z"
       id="path9966" />
    <path
       style="fill:#f9f9f9;stroke:#000000;stroke-width:1.51016px;stroke-linecap:butt;stroke-linejoin:miter;stroke-opacity:1"
       d="m 5841.9389,2953.361 -10.6559,173.5607 c -105.2286,-22.7358 -95.6274,-56.1425 -92.3348,-88.963 z"
       id="path10001"
       sodipodi:nodetypes="cccc" />
    <path
       style="fill:#f9f9f9;stroke:#000000;stroke-width:1.51016px;stroke-linecap:butt;stroke-linejoin:miter;stroke-opacity:1"
       d="m 5841.9389,2953.361 55.3711,132.3428 47.2524,-118.5496 z"
       id="path10431" />
    <path
       style="fill:#f2f2f2;stroke:#000000;stroke-width:1.51016px;stroke-linecap:round;stroke-linejoin:round;stroke-opacity:1"
       d="m 5944.5624,2967.1542 42.896,152.9611 c 34.6484,-7.7381 48.0855,-97.6281 48.5236,-162.2648 z"
       id="path10466"
       sodipodi:nodetypes="cccc" />
    <path
       style="fill:#f9f9f9;stroke:#000000;stroke-width:1.51016px;stroke-linecap:butt;stroke-linejoin:miter;stroke-opacity:1"
       d="m 6035.982,2957.8505 53.9909,91.1409 30.3277,-38.8941 z"
       id="path33912" />
    <path
       style="fill:#f9f9f9;stroke:#000000;stroke-width:1.51016px;stroke-linecap:butt;stroke-linejoin:miter;stroke-opacity:1"
       d="m 6120.3006,3010.0973 62.0481,111.4687 c 39.1229,-82.9375 23.3626,-125.3561 20.03,-176.95 z"
       id="path33947"
       sodipodi:nodetypes="cccc" />
    <path
       style="fill:#f9f9f9;stroke:#000000;stroke-width:1.51016px;stroke-linecap:butt;stroke-linejoin:miter;stroke-opacity:1"
       d="m 6202.3787,2944.616 44.8158,19.8907 24.0934,-33.1944 z"
       id="path33982" />
    <path
       style="fill:#f9f9f9;stroke:#000000;stroke-width:1.51016px;stroke-linecap:butt;stroke-linejoin:miter;stroke-opacity:1"
       d="m 6271.2879,2931.3123 27.1204,54.3449 c 29.991,-5.7225 32.036,-54.6044 44.2914,-87.7175 z"
       id="path34017"
       sodipodi:nodetypes="cccc" />
    <path
       style="fill:#f9f9f9;stroke:#000000;stroke-width:2.33495px;stroke-linecap:butt;stroke-linejoin:miter;stroke-opacity:1"
       d="m 6464.3951,4066.4398 -3.8176,-127.7241 -81.1611,79.1053 z"
       id="path35431" />
    <path
       style="fill:#f9f9f9;stroke:#000000;stroke-width:1.51016px;stroke-linecap:butt;stroke-linejoin:miter;stroke-opacity:1"
       d="m 6271.2752,4073.3544 107.645,-137.4793 c 74.0036,77.4012 47.0455,99.6574 25.634,124.9433 z"
       id="path35433"
       sodipodi:nodetypes="cccc" />
    <path
       style="fill:#f9f9f9;stroke:#000000;stroke-width:1.51016px;stroke-linecap:butt;stroke-linejoin:miter;stroke-opacity:1"
       d="m 6271.2752,4073.3544 29.6133,-140.199 -106.5571,71.6381 z"
       id="path35435" />
    <path
       style="fill:#f2f2f2;stroke:#000000;stroke-width:1.51016px;stroke-linecap:round;stroke-linejoin:round;stroke-opacity:1"
       d="m 6194.3315,4004.7935 51.6635,-150.287 c -33.0369,-12.9058 -95.3311,53.8864 -132.5026,107.0523 z"
       id="path35437"
       sodipodi:nodetypes="cccc" />
    <path
       style="fill:#f9f9f9;stroke:#000000;stroke-width:2.43298px;stroke-linecap:butt;stroke-linejoin:miter;stroke-opacity:1"
       d="m 6113.4924,3961.5588 18.9217,-105.3845 -122.5352,15.2454 z"
       id="path35439" />
    <path
       style="fill:#f9f9f9;stroke:#000000;stroke-width:1.20236px;stroke-linecap:butt;stroke-linejoin:miter;stroke-opacity:1"
       d="m 6038.6637,3880.7372 7.8208,-125.3467 c -50.9651,46.2517 -58.0973,89.6237 -75.1551,133.6478 z"
       id="path35441"
       sodipodi:nodetypes="cccc" />
    <path
       style="fill:#f9f9f9;stroke:#000000;stroke-width:3.15983px;stroke-linecap:butt;stroke-linejoin:miter;stroke-opacity:1"
       d="m 5973.8985,3885.3107 -26.9295,-173.002 -40.6621,58.5386 z"
       id="path35443" />
    <path
       style="fill:#f9f9f9;stroke:#000000;stroke-width:2.65816px;stroke-linecap:butt;stroke-linejoin:miter;stroke-opacity:1"
       d="m 5904.8474,3808.903 8.8419,-179.558 c -29.0362,-35.8354 -59.6116,81.6081 -89.625,143.0504 z"
       id="path35445"
       sodipodi:nodetypes="cccc" />
  </g>
</svg>
